<svg width="546" height="546" xmlns="http://www.w3.org/2000/svg" xmlns:xlink="http://www.w3.org/1999/xlink" xml:space="preserve" overflow="hidden"><g><path d="M130.812 79.625 415.188 79.625 415.188 466.375 130.812 466.375 130.812 79.625ZM96.6875 500.5 449.312 500.5 449.312 45.5 96.6875 45.5 96.6875 500.5Z" fill="#B6446F"/><path d="M170.625 113.75 216.125 113.75 216.125 159.25 170.625 159.25Z" fill="#B6446F"/><path d="M261.625 125.125 375.375 125.125 375.375 147.875 261.625 147.875Z" fill="#B6446F"/><path d="M170.625 204.75 216.125 204.75 216.125 250.25 170.625 250.25Z" fill="#B6446F"/><path d="M261.625 216.125 375.375 216.125 375.375 238.875 261.625 238.875Z" fill="#B6446F"/><path d="M170.625 295.75 216.125 295.75 216.125 341.25 170.625 341.25Z" fill="#B6446F"/><path d="M261.625 307.125 375.375 307.125 375.375 329.875 261.625 329.875Z" fill="#B6446F"/><path d="M170.625 386.75 216.125 386.75 216.125 432.25 170.625 432.25Z" fill="#B6446F"/><path d="M261.625 398.125 375.375 398.125 375.375 420.875 261.625 420.875Z" fill="#B6446F"/></g></svg>